
  <svg width="835.5" height="104.25" viewBox="0 0 4456 556" fill="none" xmlns="http://www.w3.org/2000/svg" xmlns:xlink="http://www.w3.org/1999/xlink" version="1.1">
    
        <g transform="translate(0, 0)">
          <svg xmlns="http://www.w3.org/2000/svg" width="256" height="256" fill="none" viewBox="0 0 256 256"><rect width="256" height="256" fill="#F03C2E" rx="60"/><g clip-path="url(#clip0_7_283)"><path fill="#fff" d="M224.225 119.094L136.906 31.775C135.711 30.5787 134.291 29.6298 132.729 28.9824C131.166 28.3349 129.491 28.0017 127.8 28.0017C126.109 28.0017 124.434 28.3349 122.871 28.9824C121.309 29.6298 119.889 30.5787 118.694 31.775L100.569 49.9L123.569 72.9C128.919 71.025 135.044 72.3062 139.306 76.5687C141.335 78.6014 142.752 81.1638 143.394 83.9632C144.036 86.7626 143.878 89.6862 142.937 92.4L165.106 114.569C170.469 112.719 176.656 113.912 180.937 118.206C182.361 119.63 183.49 121.32 184.26 123.18C185.03 125.04 185.426 127.033 185.426 129.046C185.425 131.059 185.029 133.052 184.258 134.912C183.487 136.771 182.358 138.461 180.934 139.884C179.511 141.308 177.821 142.436 175.961 143.206C174.101 143.977 172.108 144.373 170.095 144.372C168.082 144.372 166.088 143.975 164.229 143.205C162.369 142.434 160.679 141.305 159.256 139.881C154.756 135.381 153.644 128.756 155.919 123.212L135.244 102.537V156.944C136.745 157.686 138.116 158.666 139.306 159.844C140.729 161.267 141.858 162.956 142.629 164.816C143.399 166.675 143.795 168.668 143.795 170.681C143.795 172.694 143.399 174.687 142.629 176.546C141.858 178.406 140.729 180.096 139.306 181.519C137.883 182.942 136.193 184.071 134.334 184.841C132.474 185.611 130.481 186.008 128.469 186.008C126.456 186.008 124.463 185.611 122.604 184.841C120.744 184.071 119.054 182.942 117.631 181.519C116.206 180.096 115.076 178.407 114.305 176.548C113.533 174.688 113.136 172.694 113.136 170.681C113.136 168.668 113.533 166.675 114.305 164.815C115.076 162.955 116.206 161.266 117.631 159.844C119.112 158.369 120.756 157.25 122.65 156.5V101.587C120.825 100.837 119.112 99.7312 117.631 98.2437C115.479 96.0943 114.016 93.3526 113.428 90.3684C112.841 87.3841 113.155 84.2924 114.331 81.4875L91.6437 58.8125L31.7687 118.625C30.5716 119.821 29.6219 121.241 28.9739 122.804C28.3259 124.367 27.9924 126.042 27.9924 127.734C27.9924 129.426 28.3259 131.102 28.9739 132.665C29.6219 134.228 30.5716 135.648 31.7687 136.844L119.094 224.156C120.289 225.352 121.709 226.301 123.271 226.949C124.834 227.596 126.509 227.929 128.2 227.929C129.891 227.929 131.566 227.596 133.129 226.949C134.691 226.301 136.111 225.352 137.306 224.156L224.225 137.375C225.422 136.179 226.372 134.759 227.02 133.196C227.668 131.633 228.001 129.958 228.001 128.266C228.001 126.574 227.668 124.898 227.02 123.335C226.372 121.772 225.422 120.352 224.225 119.156"/></g><defs><clipPath id="clip0_7_283"><rect width="200" height="200" fill="#fff" transform="translate(28 28)"/></clipPath></defs></svg>
        </g>
         
        <g transform="translate(300, 0)">
          <svg width="256" height="256" viewBox="0 0 256 256" fill="none" xmlns="http://www.w3.org/2000/svg">
<rect width="256" height="256" rx="60" fill="#242938"/>
<path d="M128.001 30C72.7791 30 28 74.7708 28 130.001C28 174.184 56.6533 211.668 96.3867 224.891C101.384 225.817 103.219 222.722 103.219 220.081C103.219 217.696 103.126 209.819 103.083 201.463C75.2631 207.512 69.3927 189.664 69.3927 189.664C64.8437 178.105 58.2894 175.032 58.2894 175.032C49.2163 168.825 58.9733 168.953 58.9733 168.953C69.0151 169.658 74.3026 179.258 74.3026 179.258C83.2217 194.546 97.6965 190.126 103.403 187.571C104.301 181.107 106.892 176.696 109.752 174.199C87.5405 171.67 64.1913 163.095 64.1913 124.778C64.1913 113.86 68.0977 104.939 74.4947 97.9362C73.4564 95.4175 70.0335 85.2465 75.4635 71.4722C75.4635 71.4722 83.8609 68.7845 102.971 81.7226C110.948 79.5069 119.502 78.3958 128.001 78.3577C136.499 78.3958 145.061 79.5069 153.052 81.7226C172.139 68.7845 180.525 71.4722 180.525 71.4722C185.968 85.2465 182.544 95.4175 181.505 97.9362C187.917 104.939 191.797 113.86 191.797 124.778C191.797 163.187 168.403 171.644 146.135 174.119C149.722 177.223 152.918 183.308 152.918 192.638C152.918 206.018 152.802 216.787 152.802 220.081C152.802 222.742 154.602 225.86 159.671 224.878C199.383 211.64 228 174.169 228 130.001C228 74.7708 183.227 30 128.001 30ZM65.4536 172.453C65.2333 172.95 64.4517 173.099 63.7396 172.758C63.0143 172.432 62.6069 171.754 62.8421 171.256C63.0574 170.744 63.8406 170.602 64.5643 170.945C65.2913 171.271 65.7053 171.955 65.4536 172.453ZM70.3725 176.842C69.8956 177.285 68.9633 177.079 68.3307 176.38C67.6766 175.683 67.554 174.751 68.0376 174.302C68.5294 173.86 69.4336 174.067 70.0893 174.764C70.7434 175.47 70.8709 176.395 70.3725 176.842ZM73.7471 182.458C73.1344 182.884 72.1325 182.485 71.5132 181.595C70.9004 180.706 70.9004 179.64 71.5264 179.212C72.1474 178.785 73.1344 179.169 73.762 180.052C74.373 180.956 74.373 182.023 73.7471 182.458ZM79.4542 188.962C78.9061 189.566 77.7386 189.404 76.8841 188.579C76.0098 187.773 75.7663 186.629 76.3161 186.024C76.8709 185.418 78.045 185.589 78.9061 186.407C79.7738 187.211 80.0387 188.364 79.4542 188.962ZM86.8301 191.157C86.5883 191.941 85.4639 192.297 84.3312 191.964C83.2002 191.621 82.46 190.704 82.6885 189.912C82.9237 189.124 84.053 188.753 85.194 189.109C86.3234 189.45 87.0652 190.361 86.8301 191.157ZM95.2242 192.089C95.2523 192.913 94.2919 193.597 93.1029 193.612C91.9073 193.639 90.9402 192.971 90.9269 192.16C90.9269 191.327 91.8659 190.65 93.0615 190.63C94.2505 190.607 95.2242 191.269 95.2242 192.089ZM103.47 191.773C103.613 192.577 102.787 193.404 101.606 193.624C100.445 193.836 99.3702 193.339 99.2229 192.541C99.0788 191.716 99.92 190.89 101.079 190.676C102.262 190.471 103.32 190.955 103.47 191.773Z" fill="white"/>
</svg>

        </g>
         
        <g transform="translate(600, 0)">
          <svg xmlns="http://www.w3.org/2000/svg" width="256" height="256" fill="none" viewBox="0 0 256 256"><rect width="256" height="256" fill="#2396ED" rx="60"/><path fill="#fff" d="M141.187 122.123H161.904V103.379H141.187V122.123ZM116.525 122.123H137.241V103.379H116.525V122.123ZM92.3554 122.123H113.072V103.379H92.3554V122.123ZM68.1859 122.123H88.4093V103.379H68.1859V122.123ZM43.5233 122.123H64.2399V103.379H43.5233V122.123ZM68.1859 99.4333H88.4093V80.6896H68.1859V99.4333ZM92.3554 99.4333H113.072V80.6896H92.3554V99.4333ZM116.525 99.4333H137.241V80.6896H116.525V99.4333ZM116.525 76.7436H137.241V58H116.525V76.7436ZM228 113.738C228 113.738 219.121 105.352 200.871 108.312C198.898 94.0075 183.607 85.6222 183.607 85.6222C183.607 85.6222 169.303 102.886 179.661 122.123C176.702 123.603 171.769 125.576 164.37 125.576H28.7257C26.2594 134.948 26.2594 197.097 94.3284 197.097C143.16 197.097 179.661 174.408 196.925 132.974C222.574 134.948 228 113.738 228 113.738Z"/></svg>
        </g>
         
        <g transform="translate(900, 0)">
          <svg xmlns="http://www.w3.org/2000/svg" width="256" height="256" fill="none" viewBox="0 0 256 256"><rect width="256" height="256" fill="#242938" rx="60"/><path fill="#019833" d="M135.498 39.4619C128.076 32.03 116.032 32.03 108.61 39.462L33.4081 114.765C26.0001 122.183 26.0001 134.199 33.4081 141.617L108.186 216.495C115.608 223.927 127.652 223.927 135.074 216.495L210.276 141.191C217.684 133.773 217.684 121.757 210.276 114.339L135.498 39.4619Z"/><path fill="#fff" d="M161.769 40.7104L159.083 43.3988V53.2693L161.435 55.6235H173.86V65.1606L91.672 148.576V55.7425H105.331L108.133 52.9365V42.9482L105.546 40.9465H33.6672L31.3158 43.3007V53.5048L33.7069 55.8988H46.2085V216.316C46.2085 222.361 50.6553 227.485 56.6396 228.335V228.335C60.4891 228.883 64.3678 227.553 67.0718 224.759L235 51.2474V43.4001L232.315 40.7117L161.769 40.7104Z"/></svg>
        </g>
         
        <g transform="translate(1200, 0)">
          <svg xmlns="http://www.w3.org/2000/svg" width="256" height="256" fill="none" viewBox="0 0 256 256"><rect width="256" height="256" fill="url(#paint0_linear_194_8)" rx="60"/><path fill="#fff" d="M140.279 73.0456L113.618 72.9995L76.6763 170.886L100.79 170.928L106.819 154.342L143.194 154.404L136.317 136.038L112.371 135.996L127.28 93.875L156.214 171.023L180.329 171.065L140.279 73.0456Z"/><path fill="#fff" d="M233.142 99.1236C233.074 98.7932 232.975 98.4692 232.845 98.1559C232.814 98.048 232.708 97.8484 232.708 97.8484C232.256 96.9105 231.54 96.115 230.647 95.5565C229.753 94.998 228.719 94.7 227.668 94.6979C226.21 94.6954 224.82 95.2609 223.805 96.2701C222.79 97.2794 222.232 98.6496 222.255 100.079C222.264 100.685 222.381 101.266 222.577 101.808L222.561 101.814C225.148 110.399 226.527 119.272 226.659 128.183C227.07 154.102 217.16 178.454 198.759 196.75C180.355 215.047 155.659 225.096 129.221 225.051C102.785 225.005 77.7671 214.868 58.7843 196.508C39.7971 178.147 29.1172 153.76 28.7064 127.841C28.2956 101.921 38.2051 77.57 56.6092 59.2739C75.011 40.9767 99.7085 30.9277 126.145 30.9734C149.752 31.0142 172.221 39.1071 190.278 53.9126C189.686 55.448 189.395 57.0838 189.422 58.7349C189.537 66.0138 195.648 71.9221 203.074 71.9349C210.497 71.9477 216.423 66.0604 216.307 58.7814C216.192 51.5024 210.079 45.591 202.656 45.5781C201.036 45.5753 199.489 45.853 198.059 46.3648C178.55 30.1002 153.358 20.2376 125.974 20.1902C65.2366 20.0852 16.7651 68.2735 17.709 127.822C18.6528 187.37 68.6545 235.729 129.392 235.834C190.13 235.939 238.601 187.752 237.658 128.202C237.498 118.13 235.924 108.378 233.142 99.1236V99.1236Z"/><defs><linearGradient id="paint0_linear_194_8" x1="0" x2="256" y1="0" y2="256" gradientUnits="userSpaceOnUse"><stop stop-color="#4010AC"/><stop offset="1" stop-color="#D540A8"/></linearGradient></defs></svg>
        </g>
         
        <g transform="translate(1500, 0)">
          <svg xmlns="http://www.w3.org/2000/svg" width="256" height="256" fill="none" viewBox="0 0 256 256"><rect width="256" height="256" fill="#242938" rx="60"/><g clip-path="url(#clip0_101_267)"><path fill="#242938" d="M127.999 28C72.8617 28 28 72.8617 28 128.001C28 183.145 72.8617 228.004 127.999 228.004C183.138 228.004 228 183.145 228 128.001C228 72.8617 183.138 28 127.999 28Z"/><path fill="#91DC47" d="M124.342 129.799C123.444 131.746 122.452 133.934 121.426 136.262C117.797 144.484 113.778 154.488 112.31 160.898C111.783 163.18 111.456 166.009 111.462 169.146C111.462 170.387 111.529 171.691 111.634 173.019C116.765 174.904 122.306 175.941 128.093 175.951C133.361 175.941 138.422 175.07 143.159 173.495C142.045 172.477 140.983 171.392 140.016 170.17C133.594 161.98 130.011 149.979 124.342 129.799"/><path fill="#91DC47" d="M100.633 89.1133C88.368 97.757 80.3422 112.013 80.3118 128.17C80.3422 144.084 88.1266 158.156 100.083 166.836C103.016 154.62 110.367 143.434 121.391 121.012C120.737 119.213 119.991 117.245 119.156 115.177C116.102 107.516 111.694 98.6188 107.76 94.5898C105.755 92.4852 103.321 90.6664 100.633 89.1133"/><path fill="#63B132" d="M169.714 182.974C163.386 182.181 158.163 181.224 153.595 179.613C145.91 183.428 137.256 185.584 128.093 185.584C96.3867 185.584 70.6844 159.885 70.6805 128.17C70.6805 110.961 78.2617 95.5344 90.2555 85.0133C87.0477 84.2383 83.7024 83.7859 80.2852 83.7922C63.4399 83.9508 45.6578 93.2734 38.2547 118.451C37.5625 122.116 37.7274 124.887 37.7274 128.171C37.7274 178.081 78.1891 218.543 128.095 218.543C158.659 218.543 185.659 203.356 202.01 180.13C193.166 182.334 184.662 183.388 177.379 183.41C174.649 183.41 172.087 183.264 169.714 182.974"/><path fill="#90B4FE" d="M152.733 165.463C153.291 165.74 154.555 166.191 156.316 166.691C168.157 157.998 175.852 143.995 175.883 128.17H175.878C175.834 101.786 154.483 80.4383 128.093 80.3859C122.848 80.3961 117.809 81.2617 113.091 82.825C122.793 93.8844 127.459 109.689 131.972 126.977C131.974 126.985 131.978 126.991 131.98 126.998C131.988 127.012 133.423 131.798 135.887 138.149C138.334 144.491 141.82 152.343 145.622 158.065C148.118 161.899 150.863 164.655 152.733 165.463"/><path fill="#5881D8" d="M128.095 37.7977C97.8266 37.7977 71.0516 52.6984 54.6516 75.5461C63.1868 70.2008 71.9016 68.2727 79.5071 68.3414C90.0118 68.3719 98.2704 71.6289 102.233 73.857C103.19 74.4086 104.098 75.0023 104.988 75.6125C112.059 72.4984 119.871 70.757 128.093 70.757C159.803 70.7609 185.509 96.4594 185.514 128.17H185.509C185.509 144.157 178.97 158.612 168.429 169.022C171.016 169.312 173.776 169.492 176.594 169.478C186.602 169.483 197.42 167.274 205.531 160.453C210.819 155.998 215.249 149.476 217.706 139.696C218.187 135.919 218.463 132.079 218.463 128.171C218.463 78.2633 178.006 37.7977 128.095 37.7977"/></g><defs><clipPath id="clip0_101_267"><rect width="200" height="200" fill="#fff" transform="translate(28 28)"/></clipPath></defs></svg>
        </g>
         
        <g transform="translate(1800, 0)">
          <svg xmlns="http://www.w3.org/2000/svg" width="256" height="256" fill="none" viewBox="0 0 256 256"><rect width="256" height="256" fill="#242938" rx="60"/><path fill="url(#paint0_linear_2_47)" d="M127.279 29C76.5066 29 79.6772 51.018 79.6772 51.018L79.7338 73.8284H128.185V80.6772H60.4893C60.4893 80.6772 28 76.9926 28 128.222C28 179.452 56.3573 177.636 56.3573 177.636H73.2812V153.863C73.2812 153.863 72.369 125.506 101.186 125.506H149.24C149.24 125.506 176.239 125.942 176.239 99.4123V55.5461C176.239 55.5461 180.338 29 127.279 29ZM100.563 44.339C105.384 44.339 109.28 48.2351 109.28 53.0556C109.28 57.8761 105.384 61.7723 100.563 61.7723C95.7426 61.7723 91.8465 57.8761 91.8465 53.0556C91.8465 48.2351 95.7426 44.339 100.563 44.339Z"/><path fill="url(#paint1_linear_2_47)" d="M128.721 227.958C179.493 227.958 176.323 205.941 176.323 205.941L176.266 183.13H127.815V176.281H195.511C195.511 176.281 228 179.966 228 128.736C228 77.5062 199.643 79.323 199.643 79.323H182.719V103.096C182.719 103.096 183.631 131.453 154.814 131.453H106.76C106.76 131.453 79.7607 131.016 79.7607 157.546V201.412C79.7607 201.412 75.6615 227.958 128.721 227.958ZM155.437 212.619C150.616 212.619 146.72 208.723 146.72 203.903C146.72 199.082 150.616 195.186 155.437 195.186C160.257 195.186 164.154 199.082 164.154 203.903C164.154 208.723 160.257 212.619 155.437 212.619Z"/><defs><linearGradient id="paint0_linear_2_47" x1="47.22" x2="146.333" y1="46.896" y2="145.02" gradientUnits="userSpaceOnUse"><stop stop-color="#387EB8"/><stop offset="1" stop-color="#366994"/></linearGradient><linearGradient id="paint1_linear_2_47" x1="108.056" x2="214.492" y1="109.905" y2="210.522" gradientUnits="userSpaceOnUse"><stop stop-color="#FFE052"/><stop offset="1" stop-color="#FFC331"/></linearGradient></defs></svg>
        </g>
         
        <g transform="translate(2100, 0)">
          <svg xmlns="http://www.w3.org/2000/svg" width="256" height="256" fill="none" viewBox="0 0 256 256"><rect width="256" height="256" fill="#242938" rx="60"/><path fill="#fff" d="M101.634 182.619C101.634 182.619 93.9548 187.293 106.979 188.63C122.707 190.634 131.023 190.299 148.386 186.962C148.386 186.962 153.06 189.971 159.406 192.306C120.331 209.002 70.9089 191.304 101.634 182.619ZM96.6252 160.914C96.6252 160.914 88.2753 167.26 101.299 168.593C118.327 170.262 131.69 170.597 154.732 165.926C154.732 165.926 157.741 169.267 162.747 170.936C115.664 184.961 62.8975 172.269 96.6252 160.917V160.914ZM188.795 198.984C188.795 198.984 194.471 203.658 182.449 207.334C160.073 214.012 88.6104 216.019 68.5735 207.334C61.564 204.325 74.9197 199.982 79.2587 199.319C83.6012 198.317 85.9366 198.317 85.9366 198.317C78.2569 192.973 34.8424 209.337 63.8959 214.046C143.709 227.073 209.499 208.37 188.792 199.018L188.795 198.984ZM105.307 138.203C105.307 138.203 68.9052 146.888 92.2793 149.89C102.298 151.223 122 150.892 140.368 149.555C155.396 148.221 170.458 145.548 170.458 145.548C170.458 145.548 165.113 147.886 161.441 150.222C124.342 159.915 53.2107 155.573 73.5827 145.554C90.9526 137.204 105.307 138.203 105.307 138.203V138.203ZM170.423 174.604C207.83 155.234 190.46 136.534 178.438 138.873C175.429 139.54 174.096 140.207 174.096 140.207C174.096 140.207 175.097 138.203 177.436 137.54C201.145 129.19 219.849 162.586 169.757 175.61C169.757 175.61 170.092 175.275 170.423 174.608V174.604ZM108.979 227.364C145.046 229.703 200.147 226.03 201.484 208.995C201.484 208.995 198.817 215.673 171.764 220.683C141.042 226.359 102.968 225.692 80.5957 222.016C80.5957 222.016 85.2698 226.023 108.982 227.36L108.979 227.364Z"/><path fill="#F58219" d="M147.685 28C147.685 28 168.389 49.0388 127.983 80.7594C95.5891 106.472 120.632 121.168 127.983 137.861C108.948 120.833 95.2609 105.802 104.606 91.7762C118.331 71.0828 156.062 61.0644 147.685 28ZM137 123.842C146.683 134.862 134.333 144.881 134.333 144.881C134.333 144.881 159.044 132.195 147.692 116.494C137.338 101.466 129.324 94.1184 172.738 69.0689C172.738 69.0689 104.278 86.0968 137.007 123.835L137 123.842Z"/></svg>
        </g>
         
        <g transform="translate(2400, 0)">
          <svg xmlns="http://www.w3.org/2000/svg" width="256" height="256" fill="none" viewBox="0 0 256 256"><rect width="256" height="256" fill="#242938" rx="60"/><path fill="#5FB832" d="M209.545 171.821C184.93 204.618 132.347 193.547 98.6353 195.139C98.6353 195.139 92.6673 195.471 86.6563 196.461C86.6563 196.461 88.9292 195.491 91.8279 194.492C115.506 186.304 126.695 184.659 141.082 177.269C168.114 163.421 195.018 133.259 200.492 101.925C190.202 132.061 158.909 157.998 130.415 168.53C110.911 175.727 75.6419 182.731 75.6368 182.734C75.6533 182.759 74.2312 181.996 74.2113 181.979C50.2253 170.309 49.5332 118.359 93.0965 101.613C112.197 94.2661 130.466 98.3015 151.114 93.387C173.136 88.151 198.642 71.644 209.009 50.063C220.631 84.5351 234.592 138.467 209.545 171.821V171.821ZM209.973 39.3809C207.043 46.343 203.466 52.6167 199.344 58.2281C181.197 39.6038 155.868 27.9999 127.871 27.9999C72.7989 27.9999 28 72.8039 28 127.866C28 156.731 40.3209 182.764 59.9644 201.012L62.1514 202.949C58.4993 199.971 57.9377 194.608 60.8977 190.952C63.8759 187.295 69.2444 186.728 72.8983 189.69C76.562 192.658 77.1202 198.035 74.1538 201.697C71.1984 205.361 65.8202 205.914 62.1614 202.958L63.6497 204.276C81.0254 218.906 103.424 227.743 127.871 227.743C180.511 227.743 223.736 186.778 227.436 135.073C230.176 109.757 222.699 77.6106 209.973 39.3809Z"/></svg>
        </g>
         
        <g transform="translate(2700, 0)">
          <svg xmlns="http://www.w3.org/2000/svg" width="256" height="256" fill="none" viewBox="0 0 256 256"><rect width="256" height="256" fill="#300" rx="60"/><path fill="#FF9A00" d="M123.733 152.333H84.053L75.9464 177.4C75.733 178.36 74.8797 179 73.9197 178.893H53.8664C52.693 178.893 52.373 178.253 52.693 176.973L87.0397 78.0935C87.3597 77.0268 87.6797 75.8535 88.1064 74.5735C88.533 72.3335 88.7464 69.9868 88.7464 67.6401C88.6397 67.1068 89.0664 66.5735 89.5997 66.4668H89.9197H117.226C118.08 66.4668 118.506 66.7868 118.613 67.3201L157.546 177.187C157.866 178.36 157.546 178.893 156.48 178.893H134.186C133.44 179 132.693 178.467 132.48 177.72L123.733 152.333V152.333ZM90.2397 130.68H117.333C116.693 128.44 115.84 125.773 114.88 123C113.92 120.12 112.96 117.027 112 113.827C110.933 110.52 109.973 107.32 108.906 104.013C107.84 100.707 106.88 97.6135 106.026 94.5201C105.173 91.5335 104.426 88.7601 103.68 86.2001H103.466C102.506 90.7868 101.333 95.3735 99.8397 99.9601C98.2397 105.08 96.6397 110.413 94.933 115.747C93.4397 121.187 91.8397 126.2 90.2397 130.68V130.68Z"/><path fill="#FF9A00" d="M181.333 85.1334C177.813 85.2401 174.4 83.8534 171.84 81.4001C169.387 78.7334 168.107 75.2134 168.213 71.5868C168.107 67.9601 169.493 64.5468 172.053 62.0934C174.613 59.6401 178.027 58.3601 181.547 58.3601C185.707 58.3601 188.907 59.6401 191.253 62.0934C193.6 64.6534 194.88 68.0668 194.773 71.5868C194.88 75.2134 193.6 78.7334 191.04 81.4001C188.587 83.9601 184.96 85.3468 181.333 85.1334ZM169.387 177.72V95.5868C169.387 94.5201 169.813 94.0934 170.773 94.0934H191.893C192.853 94.0934 193.28 94.6268 193.28 95.5868V177.72C193.28 178.893 192.853 179.427 191.893 179.427H170.987C169.92 179.427 169.387 178.787 169.387 177.72V177.72Z"/></svg>
        </g>
         
        <g transform="translate(3000, 0)">
          <svg xmlns="http://www.w3.org/2000/svg" width="256" height="256" fill="none" viewBox="0 0 256 256"><rect width="256" height="256" fill="#242938" rx="60"/><g clip-path="url(#clip0_137_129)"><path fill="#D33833" fill-rule="evenodd" d="M198.402 124.423C198.402 164.029 167.012 196.137 128.29 196.137C89.5687 196.137 58.1785 164.029 58.1785 124.423C58.1785 84.8157 89.5687 52.7075 128.29 52.7075C167.012 52.7075 198.402 84.8157 198.402 124.423Z" clip-rule="evenodd"/><path fill="#EF3D3A" d="M61.0356 142.184C61.0356 142.184 55.96 67.3982 124.871 65.2612L120.063 57.2484L82.6703 69.8021L71.9863 82.0881L62.6382 99.9839L57.2959 120.817L58.8985 134.706"/><path fill="#231F20" d="M80.2695 75.5008C67.9682 88.0873 60.356 105.466 60.356 124.691C60.356 143.912 67.9682 161.292 80.2695 173.877C92.5767 186.461 109.538 194.226 128.289 194.226C147.041 194.226 164.003 186.461 176.309 173.877C188.61 161.292 196.224 143.912 196.224 124.691C196.224 105.466 188.61 88.0873 176.309 75.5008C164.003 62.9191 147.041 55.1538 128.289 55.1522C109.538 55.1538 92.5767 62.9191 80.2695 75.5008ZM77.1557 176.921C64.0823 163.551 56 145.073 56 124.691C56 104.305 64.0823 85.8293 77.1557 72.4583C90.226 59.0849 108.319 50.7957 128.289 50.7981C148.26 50.7957 166.354 59.0849 179.422 72.4583C192.497 85.8293 200.58 104.307 200.579 124.691C200.58 145.073 192.497 163.551 179.422 176.921C166.354 190.293 148.26 198.582 128.289 198.582C108.319 198.582 90.226 190.293 77.1557 176.921"/><path fill="#F0D6B7" fill-rule="evenodd" d="M157.804 124.821L147.119 126.423L132.696 128.026L123.347 128.292L114.267 128.026L107.322 125.889L101.178 119.212L96.3707 105.59L95.3024 102.651L88.8922 100.515L85.1528 94.3718L82.4819 85.5577L85.4204 77.8117L92.3643 75.4079L97.9733 78.0793L100.645 83.9551L103.85 83.4207L104.918 82.0858L103.85 75.9423L103.582 68.1963L105.185 57.5128L105.122 51.4103L109.993 43.6242L118.54 37.4808L133.497 31.0705L150.057 33.4744L164.48 43.891L171.158 54.5745L175.431 62.3205L176.499 81.5513L173.294 98.1114L167.418 112.801L161.809 120.547" clip-rule="evenodd"/><path fill="#335061" fill-rule="evenodd" d="M148.722 171.027L110.527 172.63V179.04L113.732 201.476L112.13 203.346L85.4206 194.264L83.5504 191.059L80.8796 160.878L74.7373 142.716L73.4014 138.442L94.7684 123.752L101.446 121.081L107.322 128.292L112.397 132.833L118.273 134.703L120.944 135.504L124.149 149.393L126.553 152.331L132.696 150.194L128.422 158.474L151.66 169.425L148.722 171.027" clip-rule="evenodd"/><path fill="#6D6B6D" fill-rule="evenodd" d="M85.4205 77.8117L92.3644 75.4078L97.9734 78.0793L100.645 83.9551L103.85 83.4206L104.651 80.2155L103.049 74.0729L104.651 59.3822L103.315 51.3693L108.123 45.7604L118.54 37.4807L115.602 33.4743L100.911 40.6858L94.7682 45.4935L91.2961 52.9719L85.9541 60.1834L84.3516 68.7307L85.4205 77.8117Z" clip-rule="evenodd"/><path fill="#DCD9D8" fill-rule="evenodd" d="M96.3709 52.7051C96.3709 52.7051 100.377 42.8229 116.403 38.0152C132.429 33.2075 117.204 34.5424 117.204 34.5424L99.8437 41.2203L93.1658 47.8974L90.2283 53.2396L96.3709 52.7051Z" clip-rule="evenodd"/><path fill="#DCD9D8" fill-rule="evenodd" d="M88.358 75.9422C88.358 75.9422 82.749 57.2451 104.117 54.5745L103.315 51.3693L88.6256 54.8421L84.3516 68.7307L85.4205 77.8116L88.358 75.9422Z" clip-rule="evenodd"/><path fill="#F7E4CD" fill-rule="evenodd" d="M96.905 100.782L100.402 97.3934C100.402 97.3934 101.981 97.5769 102.247 99.4463C102.514 101.317 103.315 118.143 114.8 127.225C115.848 128.054 106.254 125.889 106.254 125.889L97.7063 112.534" clip-rule="evenodd"/><path fill="#F7E4CD" fill-rule="evenodd" d="M146.052 95.7075C146.052 95.7075 146.675 87.6114 148.855 88.234C151.035 88.8566 151.035 91.0368 151.035 91.0368C151.035 91.0368 145.74 94.4623 146.052 95.7075" clip-rule="evenodd"/><path fill="#F7E4CD" d="M168.22 66.0601C168.22 66.0601 163.817 66.9895 163.412 70.8678C163.006 74.7468 168.22 71.669 169.021 71.4022"/><path fill="#F7E4CD" d="M135.901 66.3277C135.901 66.3277 130.025 67.129 130.025 70.8678C130.025 74.6073 136.703 74.3405 138.572 72.738"/><path fill="#F7E4CD" fill-rule="evenodd" d="M99.5759 83.6883C99.5759 83.6883 89.4259 77.5448 88.358 83.4215C87.2897 89.2973 84.8852 93.5713 89.9605 99.7139L86.4884 98.6458L83.2833 90.3662L82.2153 82.3533L88.358 75.9423L95.3025 76.4767L99.3089 79.6819L99.5759 83.6883Z" clip-rule="evenodd"/><path fill="#F7E4CD" fill-rule="evenodd" d="M104.384 66.8614C104.384 66.8614 108.924 43.3574 131.895 38.8165C150.806 35.0785 160.74 39.6178 164.48 43.891C164.48 43.891 147.653 23.8598 131.627 30.0024C115.602 36.1458 103.85 47.3638 104.117 54.5745C104.572 66.8566 104.384 66.8614 104.384 66.8614Z" clip-rule="evenodd"/><path fill="#F7E4CD" fill-rule="evenodd" d="M166.35 46.5617C166.35 46.5617 158.605 46.2949 158.337 53.2396C158.337 53.2396 158.337 54.3077 158.871 55.3758C158.871 55.3758 165.015 48.4311 168.754 52.1707" clip-rule="evenodd"/><path fill="#F7E4CD" fill-rule="evenodd" d="M132.433 56.0994C132.433 56.0994 131.1 45.4399 122.012 51.637C116.136 55.6434 116.671 61.2524 117.738 62.3205C118.807 63.3894 118.516 65.5409 119.33 64.0641C120.142 62.5873 119.875 57.7796 122.813 56.4447C125.751 55.109 130.568 53.617 132.433 56.0994Z" clip-rule="evenodd"/><path fill="#49728B" fill-rule="evenodd" d="M107.322 128.292L82.2155 139.51C82.2155 139.51 92.6321 180.91 87.2898 193.731L83.5504 192.396L83.2834 176.637L76.3398 146.723L73.4014 138.442L99.576 120.815L107.322 128.292Z" clip-rule="evenodd"/><path fill="#49728B" fill-rule="evenodd" d="M109.903 151.191L113.465 155.537V171.562H109.191C109.191 171.562 108.658 160.345 108.658 159.009C108.658 157.673 109.191 152.865 109.191 152.865" clip-rule="evenodd"/><path fill="#49728B" fill-rule="evenodd" d="M109.993 173.966L97.9734 174.5L101.446 176.904L109.993 178.239" clip-rule="evenodd"/><path fill="#335061" fill-rule="evenodd" d="M151.126 171.295L161.008 171.028L163.412 195.601L153.262 196.936L151.126 171.295" clip-rule="evenodd"/><path fill="#335061" fill-rule="evenodd" d="M153.796 171.295L168.754 170.494C168.754 170.494 174.897 155.002 174.897 154.201C174.897 153.4 180.239 131.765 180.239 131.765L168.219 119.212L165.816 117.075L159.405 123.486V148.325L153.796 171.295" clip-rule="evenodd"/><path fill="#49728B" fill-rule="evenodd" d="M160.473 169.425L151.126 171.295L152.461 178.774C155.933 180.377 161.809 176.103 161.809 176.103" clip-rule="evenodd"/><path fill="#49728B" fill-rule="evenodd" d="M160.741 122.684L179.438 136.573L179.972 130.163L165.816 117.075L160.741 122.684Z" clip-rule="evenodd"/><path fill="#fff" fill-rule="evenodd" d="M119.262 223.915L113.732 201.476L110.982 184.919L110.527 172.63L135.555 171.297L151.126 171.295L149.71 199.342L152.114 220.977L151.847 224.983L131.548 226.586L119.262 223.915" clip-rule="evenodd"/><path fill="#DCD9D8" fill-rule="evenodd" d="M147.653 171.028C147.653 171.028 146.318 198.806 150.325 218.57C150.325 218.57 142.312 223.646 130.559 224.981L152.995 224.179L155.666 222.577L152.461 178.774L151.66 169.425" clip-rule="evenodd"/><path fill="#fff" fill-rule="evenodd" d="M163.867 193.466L174.284 190.528L194.048 189.46L196.986 180.379L191.644 164.62L185.502 163.819L176.954 166.49L168.754 170.494L164.401 169.695L161.008 171.028" clip-rule="evenodd"/><path fill="#DCD9D8" fill-rule="evenodd" d="M163.679 188.122C163.679 188.122 170.623 184.917 171.692 185.184L168.754 170.494L172.226 169.159C172.226 169.159 174.63 183.047 174.63 184.65C174.63 184.65 189.587 185.451 190.922 185.451C190.922 185.451 194.127 179.308 193.326 172.897L196.264 181.445L196.531 186.252L192.258 192.663L187.45 193.731L179.438 193.464L176.767 189.992L167.418 191.327L164.48 192.396" clip-rule="evenodd"/><path fill="#fff" d="M153.183 169.161L147.307 154.204L141.164 145.389C141.164 145.389 142.499 141.65 144.369 141.65C146.239 141.65 150.512 141.65 150.512 141.65L156.388 143.787L155.854 153.669L153.183 169.161Z"/><path fill="#DCD9D8" fill-rule="evenodd" d="M154.331 164.083C154.331 164.083 146.852 149.661 146.852 147.524C146.852 147.524 148.187 144.319 150.057 145.12C151.927 145.921 155.934 148.058 155.934 148.058V142.983L146.852 141.113L140.709 141.914L151.126 166.487L153.262 166.755" clip-rule="evenodd"/><path fill="#fff" d="M121.666 128.83L114.267 128.026L107.322 125.889V128.292L110.715 132.034L121.399 136.842"/><path fill="#DCD9D8" fill-rule="evenodd" d="M109.727 129.631C109.727 129.631 118.007 133.103 120.678 132.302L120.944 135.504L113.466 133.905L108.925 130.7L109.727 129.631Z" clip-rule="evenodd"/><path fill="#D33833" fill-rule="evenodd" d="M163.838 142.559C159.306 142.426 155.211 141.888 151.627 140.877C151.87 139.407 151.414 137.965 151.78 136.906C152.78 136.187 154.454 136.198 155.965 136.029C154.659 135.387 152.824 135.133 151.316 135.504C151.281 134.484 150.824 133.852 150.546 133.054C153.094 132.144 159.11 126.182 162.493 128.156C164.106 129.095 164.791 134.459 164.916 137.067C165.02 139.231 164.719 141.413 163.838 142.559Z" clip-rule="evenodd"/><path stroke="#D33833" stroke-width="2.5" d="M163.838 142.559C159.306 142.426 155.211 141.888 151.627 140.877C151.87 139.407 151.414 137.965 151.78 136.906C152.78 136.187 154.454 136.198 155.965 136.029C154.659 135.387 152.824 135.133 151.316 135.504C151.281 134.484 150.824 133.852 150.546 133.054C153.094 132.144 159.11 126.182 162.493 128.156C164.106 129.095 164.791 134.459 164.916 137.067C165.02 139.231 164.719 141.413 163.838 142.559Z"/><path fill="#D33833" fill-rule="evenodd" d="M142.166 135.151C142.154 135.494 142.139 135.839 142.126 136.185C140.711 137.115 138.426 137.103 136.873 137.885C139.163 137.985 140.965 138.536 142.524 139.313C142.49 140.177 142.457 141.04 142.423 141.904C139.829 143.679 137.46 146.324 134.406 147.989C132.962 148.776 127.895 150.803 126.359 150.445C125.489 150.243 125.411 149.164 125.064 148.148C124.323 145.97 122.619 142.505 122.47 139.228C122.281 135.088 121.863 128.151 126.324 129.003C129.923 129.69 134.109 131.348 136.895 132.87C138.598 133.801 139.583 134.952 142.166 135.151" clip-rule="evenodd"/><path stroke="#D33833" stroke-width="2.5" d="M142.166 135.151C142.154 135.494 142.139 135.839 142.126 136.185C140.711 137.115 138.426 137.103 136.873 137.885C139.163 137.985 140.965 138.536 142.524 139.313C142.49 140.177 142.457 141.04 142.423 141.904C139.829 143.679 137.46 146.324 134.406 147.989C132.962 148.776 127.895 150.803 126.359 150.445C125.489 150.243 125.411 149.164 125.064 148.148C124.323 145.97 122.619 142.505 122.47 139.228C122.281 135.088 121.863 128.151 126.324 129.003C129.923 129.69 134.109 131.348 136.895 132.87C138.598 133.801 139.583 134.952 142.166 135.151V135.151Z"/><path fill="#D33833" fill-rule="evenodd" d="M144.742 140.09C144.346 137.835 143.889 137.192 144.066 135.224C150.079 131.215 151.208 142.111 144.742 140.09Z" clip-rule="evenodd"/><path stroke="#D33833" stroke-width="2.5" d="M144.742 140.09C144.346 137.835 143.889 137.192 144.066 135.224C150.079 131.215 151.208 142.111 144.742 140.09Z"/><path fill="#EF3D3A" fill-rule="evenodd" d="M153.45 141.917C153.45 141.917 151.579 139.246 152.915 138.445C154.251 137.643 155.587 138.446 156.388 137.11C157.189 135.774 156.388 134.973 156.655 133.37C156.921 131.768 158.258 131.5 159.593 131.233C160.928 130.966 164.668 130.432 165.202 131.768L163.599 126.96L160.394 125.892L150.244 131.768L149.71 134.706V140.582" clip-rule="evenodd"/><path fill="#EF3D3A" fill-rule="evenodd" d="M125.405 150.732C125.084 146.563 124.745 142.401 124.367 138.236C123.801 132.018 125.86 133.103 131.25 133.103C132.073 133.103 136.319 134.085 136.623 134.706C138.079 137.681 134.187 137.02 138.301 139.264C141.773 141.157 147.908 138.114 146.505 133.905C145.72 132.969 142.414 133.613 141.228 132.998C139.142 131.917 137.055 130.835 134.969 129.753C132.314 128.376 126.178 126.368 123.348 128.292C116.176 133.17 123.8 145.357 126.359 150.445" clip-rule="evenodd"/><path fill="#231F20" fill-rule="evenodd" d="M132.433 56.0993C125.153 54.4038 121.536 59.1458 119.329 64.0641C117.359 63.5865 118.143 60.907 118.641 59.5417C119.944 55.9583 125.195 51.1883 129.486 51.8349C131.332 52.113 133.831 53.8013 132.433 56.0993" clip-rule="evenodd"/><path fill="#231F20" fill-rule="evenodd" d="M167.903 64.3894C168.018 64.3942 168.134 64.3982 168.248 64.403C169.894 67.8205 171.317 71.4407 173.393 74.4575C172.002 77.6955 162.865 80.5609 163.006 74.7468C164.982 73.883 168.394 74.5705 170.145 73.4672C169.132 70.6875 167.671 68.3213 167.903 64.3894" clip-rule="evenodd"/><path fill="#231F20" fill-rule="evenodd" d="M136.16 64.4783C137.721 67.3397 138.229 70.3461 140.448 72.5088C141.447 73.4823 143.39 74.669 142.427 77.3766C142.202 78.0152 140.557 79.4391 139.607 79.7187C136.139 80.7428 128.056 79.9302 130.793 75.6057C133.662 75.7395 137.518 77.4687 139.662 75.3862C138.015 72.754 135.08 67.5464 136.16 64.4783" clip-rule="evenodd"/><path fill="#231F20" fill-rule="evenodd" d="M166.601 93.5601C161.378 96.915 155.555 100.563 146.997 99.7171C145.168 98.1274 144.471 94.5897 146.248 92.2532C147.172 93.8429 146.591 96.7668 149.168 97.2067C154.024 98.0377 159.676 94.2364 163.168 92.9078C165.334 89.2564 162.982 87.9134 161.031 85.5633C157.036 80.7484 151.678 74.7804 151.873 67.5721C153.487 66.4014 153.627 69.359 153.858 69.8974C155.944 74.7788 161.193 81.0216 165.024 85.1995C165.965 86.2284 167.514 87.2155 167.686 87.8958C168.183 89.8742 166.393 92.2444 166.601 93.5601" clip-rule="evenodd"/><path fill="#231F20" fill-rule="evenodd" d="M97.7481 90.028C96.1111 89.0937 95.7214 84.9784 93.7995 84.8614C91.053 84.6947 91.5538 90.2003 91.5648 93.4199C89.6742 91.7035 89.3418 86.4191 90.7306 83.7051C89.1478 82.9279 88.441 84.5625 87.563 85.1386C88.6914 76.9415 99.5541 81.3365 97.7481 90.028Z" clip-rule="evenodd"/><path fill="#231F20" fill-rule="evenodd" d="M169.926 96.9735C167.495 101.601 164.056 106.697 156.922 106.845C156.777 105.351 156.666 103.077 156.93 102.177C162.384 101.653 165.751 98.8774 169.926 96.9735Z" clip-rule="evenodd"/><path fill="#231F20" fill-rule="evenodd" d="M135.749 99.9736C140.299 102.366 148.661 102.623 154.845 102.442C155.177 103.797 155.169 105.471 155.182 107.123C147.232 107.52 137.833 105.553 135.749 99.9736Z" clip-rule="evenodd"/><path fill="#231F20" fill-rule="evenodd" d="M134.884 104.435C138.031 112.335 148.845 111.425 157.964 111.208C157.563 112.233 156.692 113.445 155.611 113.883C152.688 115.072 144.628 115.974 140.571 113.82C137.999 112.452 136.345 109.361 134.936 107.55C134.255 106.675 130.865 104.44 134.884 104.435" clip-rule="evenodd"/><path fill="#81B0C4" fill-rule="evenodd" d="M166.221 148.011C162.529 154.335 158.996 160.83 154.615 166.408C156.452 161.008 157.238 151.97 157.515 145.08C161.357 143.282 164.648 145.485 166.221 148.011Z" clip-rule="evenodd"/><path fill="#231F20" fill-rule="evenodd" d="M186.09 170.74C181.956 171.567 179.051 175.585 175.019 175.327C177.235 172.203 181.119 170.885 186.09 170.74Z" clip-rule="evenodd"/><path fill="#231F20" fill-rule="evenodd" d="M187.913 177.209C184.544 177.565 180.586 178.111 177.169 177.829C178.787 175.358 185.02 176.211 187.913 177.209Z" clip-rule="evenodd"/><path fill="#231F20" fill-rule="evenodd" d="M189.081 182.787C185.294 182.869 180.587 182.793 176.988 182.491C179.117 180.204 186.625 181.643 189.081 182.787Z" clip-rule="evenodd"/><path fill="#DCD9D8" fill-rule="evenodd" d="M159.096 198.05C159.639 202.806 161.525 207.625 161.288 212.833C159.195 213.539 157.992 214.157 155.187 214.153C154.989 209.727 154.397 202.96 154.574 198.74C155.953 198.832 157.988 197.755 159.096 198.05Z" clip-rule="evenodd"/><path fill="#F0D6B7" fill-rule="evenodd" d="M152.991 127.961C151.09 129.202 149.47 130.752 147.644 132.077C143.595 132.277 141.385 131.796 138.409 129.471C138.458 129.284 138.757 129.368 138.768 129.139C143.103 131.071 148.614 128.352 152.991 127.961" clip-rule="evenodd"/><path fill="#81B0C4" fill-rule="evenodd" d="M130.234 157.51C131.425 152.349 136.092 149.676 140.33 146.834C144.704 152.386 147.365 159.525 150.294 166.414C143.373 164.328 136.3 160.942 130.234 157.51Z" clip-rule="evenodd"/><path fill="#231F20" fill-rule="evenodd" d="M154.574 198.74C154.397 202.96 154.989 209.727 155.187 214.153C157.992 214.157 159.195 213.539 161.288 212.833C161.525 207.625 159.639 202.806 159.096 198.05C157.988 197.755 155.953 198.832 154.574 198.74V198.74ZM110.892 174.743C112.742 191.749 115.422 206.044 120.336 221.103C131.242 224.414 144.39 224.703 154.03 221.715C152.26 213.215 153.034 202.868 151.999 193.798C151.219 186.981 151.617 180.122 150.548 173.167C138.867 170.737 122.356 172.599 110.892 174.743V174.743ZM153.31 173.273C153.211 180.577 153.637 187.781 154.195 195.094C156.999 194.673 158.902 194.392 161.508 193.821C160.662 186.781 160.766 178.859 159.042 172.631C157.05 172.65 155.296 172.608 153.31 173.273V173.273ZM167.537 172.096C166.206 171.791 164.656 172.084 163.385 172.109C163.982 178.063 165.433 184.632 165.943 190.882C167.944 190.944 169.013 190 170.659 189.683C170.747 184.197 170.179 176.639 167.537 172.096V172.096ZM189.078 191.778C193.249 190.765 195.872 185.657 194.705 180.411C193.922 176.885 192.528 170.247 191.036 167.991C189.933 166.323 186.944 164.139 184.557 165.667C180.674 168.154 173.833 168.876 171.002 171.885C172.421 176.613 172.862 183.107 173.448 189.097C178.299 189.399 184.268 187.762 188.302 189.499C185.485 190.412 181.831 190.419 179.397 191.749C181.386 192.709 186.042 192.515 189.078 191.778V191.778ZM150.294 166.414C147.365 159.525 144.704 152.386 140.33 146.834C136.092 149.676 131.425 152.349 130.234 157.51C136.3 160.942 143.373 164.328 150.294 166.414ZM157.515 145.08C157.238 151.97 156.452 161.008 154.615 166.408C158.996 160.83 162.529 154.335 166.221 148.011C164.647 145.485 161.357 143.282 157.515 145.08V145.08ZM149.329 142.171C147.67 141.993 146.261 144.079 144.103 143.177C143.609 143.724 143.159 144.316 142.655 144.849C147.421 150.593 149.587 158.742 153.268 165.492C155.244 159.008 155.016 151.904 155.451 144.828C152.737 145 151.231 142.373 149.329 142.171ZM144.066 135.224C143.889 137.191 144.346 137.835 144.742 140.09C151.208 142.111 150.079 131.215 144.066 135.224ZM136.895 132.87C134.109 131.348 129.923 129.69 126.324 129.003C121.863 128.15 122.281 135.088 122.47 139.228C122.619 142.505 124.323 145.97 125.064 148.148C125.411 149.164 125.489 150.243 126.358 150.445C127.895 150.803 132.962 148.776 134.406 147.989C137.46 146.324 139.829 143.679 142.423 141.904C142.457 141.04 142.49 140.177 142.524 139.313C140.965 138.536 139.163 137.985 136.873 137.885C138.426 137.103 140.711 137.115 142.126 136.185C142.139 135.839 142.154 135.494 142.166 135.151C139.582 134.952 138.598 133.801 136.895 132.87V132.87ZM110.281 128.036C107.969 130.384 116.767 133.584 119.569 133.756C119.553 132.271 120.415 130.87 120.242 129.804C116.915 129.22 112.542 129.606 110.281 128.036V128.036ZM138.768 129.139C138.757 129.368 138.458 129.284 138.409 129.471C141.385 131.796 143.594 132.277 147.644 132.077C149.47 130.752 151.09 129.202 152.991 127.961C148.614 128.352 143.103 131.071 138.768 129.139V129.139ZM164.916 137.067C164.791 134.459 164.106 129.095 162.494 128.156C159.11 126.181 153.094 132.144 150.546 133.054C150.824 133.852 151.281 134.484 151.316 135.504C152.824 135.133 154.659 135.387 155.965 136.029C154.454 136.198 152.78 136.187 151.78 136.906C151.414 137.965 151.87 139.407 151.627 140.877C155.211 141.888 159.306 142.426 163.838 142.559C164.719 141.413 165.02 139.231 164.916 137.067V137.067ZM106.388 130.307C105.662 129.789 100.75 123.397 100.077 123.663C91.1875 127.168 82.8757 133.23 75.4482 138.963C82.5299 154.159 85.3885 172.776 85.8937 190.719C94.006 194.514 101.131 199.983 112.14 200.554C110.866 191.542 109.703 183.501 108.98 175.015C106.214 173.849 102.246 175.068 99.6573 174.654C99.6353 171.534 103.61 173.288 103.942 171.19C104.191 169.603 101.754 169.483 102.548 166.985C104.571 167.72 105.634 169.345 107.792 169.955C109.764 165.641 107.765 158.008 108.049 154.402C108.103 153.725 108.387 150.652 109.903 151.191C111.246 151.668 109.827 159.365 109.974 162.778C110.108 165.922 109.594 168.965 110.867 170.938C121.505 169.49 132.314 168.555 143.824 168.239C141.292 167.152 138.284 166.124 134.986 164.265C133.198 163.257 127.562 161.16 127.046 159.462C126.223 156.756 129.206 155.315 129.716 152.995C124.347 155.924 123.299 150.188 122.029 146.125C120.878 142.445 120.223 139.696 119.941 137.573C115.315 135.368 110.37 133.135 106.388 130.307V130.307ZM160.218 124.436C167.624 120.845 168.959 137.858 166.056 143.339C166.505 144.974 168.048 145.599 168.678 147.069C164.545 154.473 159.954 161.384 155.737 168.7C158.874 166.748 163.355 168.351 167.046 166.889C168.396 166.356 169.373 163.267 170.394 160.796C173.204 153.997 176.155 145.425 177.467 138.937C177.764 137.459 178.571 134.238 178.39 132.922C178.067 130.566 174.871 128.82 173.245 127.363C170.25 124.672 168.364 122.304 165.239 119.788C163.973 121.659 161.254 122.915 160.218 124.436V124.436ZM89.4503 58.7564C85.9212 62.6394 86.6599 69.9151 87.0872 75.0913C93.4661 71.0785 101.933 75.4086 101.853 82.234C104.898 82.153 102.991 78.4303 102.44 76.032C100.639 68.1987 105.473 59.6883 102.659 52.5248C97.1955 52.9391 92.707 55.1707 89.4503 58.7564V58.7564ZM114.702 36.2195C106.712 38.484 96.4731 44.2893 93.1901 51.4663C95.7322 51.0969 97.4969 49.8149 100.005 49.6562C100.952 49.5945 102.194 50.0537 103.283 49.7828C105.454 49.2444 107.286 44.3774 108.924 42.5665C110.52 40.7981 112.439 40.0425 113.752 38.4303C114.595 38.0232 115.843 38.0513 115.89 36.7844C115.525 36.3934 115.14 36.0953 114.702 36.2195V36.2195ZM156.291 38.3493C147.998 33.6707 133.962 30.1514 125.141 34.5489C118.024 38.0977 108.402 43.9695 105.122 51.4102C108.187 58.5905 104.215 65.1699 103.961 72.4599C103.826 76.3389 105.787 79.7252 105.938 83.9479C104.889 85.6779 101.685 85.891 99.4679 85.7724C98.7214 82.0368 97.4146 77.8381 93.5679 77.4167C88.1248 76.8213 84.1449 81.3261 83.8977 86.0336C83.605 91.5697 88.1498 100.745 94.5913 100.108C97.0797 99.8622 97.691 97.3678 100.402 97.3934C101.872 100.325 98.1355 101.246 97.7511 103.343C97.651 103.885 98.061 106.002 98.2994 106.994C99.4695 111.829 102.078 118.085 104.645 121.765C107.903 126.433 114.305 127.137 121.192 127.595C122.422 124.945 126.953 125.163 129.906 125.856C126.367 124.454 123.078 121.057 120.351 118.05C117.22 114.599 114.048 110.898 113.887 106.389C119.805 114.599 124.694 121.768 135.455 125.38C143.598 128.111 153.107 124.128 159.364 119.735C161.96 117.909 163.51 115.011 165.355 112.359C172.26 102.427 175.481 88.2508 174.773 74.5104C174.481 68.8437 174.494 63.1963 172.593 59.3838C170.606 55.3974 163.885 51.8309 159.95 55.4367C159.221 51.5601 163.222 49.1627 167.921 50.5577C164.57 46.2332 161.054 41.0368 156.291 38.3493V38.3493ZM171.74 166.208C178.22 162.986 190.328 157.537 194.39 166.22C195.889 169.42 197.648 174.83 198.425 178.134C199.522 182.795 197.235 192.591 192.445 194.156C188.213 195.537 183.276 195.453 178.179 194.429C177.578 193.93 176.91 193.059 176.443 192.152C172.804 192.011 169.396 192.348 166.521 193.844C166.793 196.535 164.973 196.967 163.266 197.522C162.001 202.538 165.797 209.09 164.889 213.664C164.24 216.923 160.231 217.427 157.284 218.037C157.187 219.848 157.413 221.36 157.614 222.892C156.94 225.375 153.917 226.788 151.054 227.135C141.631 228.268 127.325 228.777 118.262 225.518C115.733 219.314 113.741 211.769 111.634 204.686C102.795 205.63 95.6461 200.872 88.9066 197.755C86.5732 196.673 83.3453 196.077 82.4736 194.22C81.6284 192.421 81.9743 188.975 81.7646 185.72C81.2309 177.405 80.774 169.385 78.5782 160.871C77.5923 157.051 75.8739 153.679 74.6751 149.998C73.5671 146.587 71.6312 142.37 71.1263 138.968C70.3776 133.925 75.1258 133.645 78.1619 131.46C82.8554 128.081 86.5394 126.212 91.6225 123.163C93.128 122.26 97.6682 119.974 98.1846 118.921C99.2112 116.833 96.4224 113.89 95.6768 112.254C94.4974 109.667 93.8824 107.469 93.7134 104.916C89.4494 104.242 86.217 101.704 84.2645 98.8429C81.0347 94.1074 78.7948 85.3461 81.5893 78.6819C81.8084 78.157 82.9014 77.125 83.0626 76.3189C83.3806 74.7316 82.4641 72.621 82.4071 70.9327C82.1135 62.2708 83.8727 54.8077 89.7038 52.1955C92.0711 42.7652 100.544 39.6298 108.526 34.9431C111.51 33.1915 114.799 32.0721 118.196 30.8221C130.382 26.3373 149.079 27.1819 159.193 34.8309C163.481 38.0745 170.336 44.9231 172.788 49.8814C179.264 62.9719 178.804 84.8493 174.275 100.773C173.666 102.911 172.783 106.054 171.55 108.622C170.69 110.415 168.018 114.003 168.342 115.587C168.676 117.224 174.435 121.596 175.67 122.787C177.893 124.932 182.118 127.779 182.46 130.486C182.828 133.366 181.191 137.307 180.361 140.087C177.589 149.363 174.884 157.938 171.74 166.208" clip-rule="evenodd"/><path fill="#F7E4CD" fill-rule="evenodd" d="M128.509 101.994C128.86 101.526 130.793 100.816 133.497 102.118C133.497 102.118 130.292 102.652 130.559 107.996L129.223 107.728C129.223 107.728 127.843 102.883 128.509 101.994" clip-rule="evenodd"/><path fill="#1D1919" fill-rule="evenodd" d="M151.927 147.925C151.927 148.736 151.269 149.393 150.458 149.393C149.647 149.393 148.989 148.736 148.989 147.925C148.989 147.114 149.647 146.455 150.458 146.455C151.269 146.455 151.927 147.114 151.927 147.925Z" clip-rule="evenodd"/><path fill="#1D1919" fill-rule="evenodd" d="M153.396 154.736C153.396 155.547 152.738 156.204 151.926 156.204C151.115 156.204 150.458 155.547 150.458 154.736C150.458 153.925 151.115 153.266 151.926 153.266C152.738 153.266 153.396 153.925 153.396 154.736Z" clip-rule="evenodd"/></g><defs><clipPath id="clip0_137_129"><rect width="144.872" height="200" fill="#fff" transform="translate(56 28)"/></clipPath></defs></svg>
        </g>
         
        <g transform="translate(3300, 0)">
          <svg xmlns="http://www.w3.org/2000/svg" width="256" height="256" fill="none" viewBox="0 0 256 256"><rect width="256" height="256" fill="#242938" rx="60"/><path fill="#ECEFF1" d="M85.9493 199.926L110.48 213.546H147.576L182.278 187.491L197.834 146.632L161.935 103.405L151.764 79.1268L102.104 80.9032L102.702 94.5228L93.1291 112.287L78.1713 141.303L75.1797 165.581L85.9493 199.926Z"/><path fill="#263238" d="M187.064 114.656C177.491 101.036 169.713 92.7463 165.525 75.5738C161.337 58.4013 166.722 63.1386 163.132 48.3347C161.337 40.6367 158.345 35.3073 155.354 31.1622C151.764 27.0171 147.576 24.6485 145.182 24.0563C139.798 21.0956 127.233 16.3583 111.677 24.6485C95.5223 32.9387 97.3172 50.7033 100.309 86.8248C100.309 89.1934 99.7105 92.1542 98.5139 94.5228C96.1206 99.8522 91.9324 104.589 88.3425 108.735C84.1543 114.656 79.9661 120.578 76.9746 127.091C69.7948 140.711 63.2134 157.883 65.0083 164.397C67.9999 163.805 105.694 220.652 105.694 221.836C108.087 221.244 118.258 221.244 127.233 221.244C139.798 220.652 146.977 220.06 157.149 222.428C157.149 220.652 156.55 218.875 156.55 217.099C156.55 213.546 157.149 210.585 157.747 206.44C158.345 203.479 158.944 200.519 159.542 196.966C153.559 202.295 142.789 208.217 132.618 209.993C123.643 211.769 108.685 208.809 101.505 199.926C102.104 199.926 103.3 199.926 103.899 199.334C105.694 198.742 107.489 198.15 108.087 196.966C109.882 194.005 108.685 191.044 107.489 189.268C106.292 187.491 97.3173 180.977 93.1291 177.425C88.9409 173.872 86.5476 172.095 84.1544 169.727C84.1544 169.727 80.5645 166.174 79.3678 164.989C78.1712 163.805 77.5729 162.621 76.9746 162.028C75.778 159.068 75.1796 155.515 75.778 150.778C76.3763 144.264 78.7695 138.934 81.7611 133.013C82.9577 130.644 85.9493 125.907 85.9493 125.907C85.9493 125.907 75.778 150.778 81.1628 158.476C81.1628 158.476 81.7611 150.778 84.1544 143.08C85.9493 137.75 88.9409 130.052 92.5307 125.907C96.1206 121.762 105.095 106.366 105.694 96.8914C105.694 92.7463 106.292 88.6012 106.292 85.6405C103.899 83.2718 145.781 77.3503 148.174 83.864C148.772 86.2326 157.149 107.55 161.935 118.801C164.328 124.131 167.32 128.868 169.115 134.789C170.91 141.303 172.106 150.185 172.106 159.068C172.106 160.844 172.106 163.805 171.508 166.766C172.705 166.766 196.039 141.895 168.517 121.17C168.517 121.17 185.269 128.868 185.868 144.264C186.466 156.699 181.081 166.766 179.885 168.542C180.483 168.542 192.449 173.872 193.047 173.872C195.441 173.872 200.227 172.095 200.227 172.095C200.826 170.319 202.62 165.581 202.62 163.805C206.809 150.185 196.637 128.276 187.064 114.656V114.656Z"/><path fill="#ECEFF1" d="M111.078 75.5738C115.374 75.5738 118.856 70.2714 118.856 63.7307C118.856 57.1899 115.374 51.8876 111.078 51.8876C106.783 51.8876 103.3 57.1899 103.3 63.7307C103.3 70.2714 106.783 75.5738 111.078 75.5738Z"/><path fill="#ECEFF1" d="M138.002 76.7581C143.62 76.7581 148.174 70.6604 148.174 63.1386C148.174 55.6167 143.62 49.519 138.002 49.519C132.385 49.519 127.831 55.6167 127.831 63.1386C127.831 70.6604 132.385 76.7581 138.002 76.7581Z"/><path fill="#212121" d="M115.424 64.5411C114.927 60.6476 112.663 57.7241 110.368 58.0111C108.074 58.2982 106.616 61.6872 107.114 65.5807C107.611 69.4741 109.874 72.3977 112.169 72.1106C114.464 71.8235 115.921 68.4345 115.424 64.5411Z"/><path fill="#212121" d="M137.404 73.2052C140.709 73.2052 143.387 69.7587 143.387 65.5072C143.387 61.2557 140.709 57.8091 137.404 57.8091C134.1 57.8091 131.421 61.2557 131.421 65.5072C131.421 69.7587 134.1 73.2052 137.404 73.2052Z"/><path fill="#FFC107" d="M216.98 195.781C214.587 194.597 210.398 192.82 206.808 187.491C205.014 184.53 205.612 176.24 202.62 172.687C200.825 170.319 198.432 171.503 197.834 171.503C192.449 172.687 179.884 180.977 171.508 171.503C170.311 170.319 168.516 168.542 165.525 168.542C162.533 168.542 161.337 169.726 160.14 172.095C158.943 174.464 158.943 176.24 158.943 182.162C158.943 186.899 158.943 192.228 158.345 196.373C157.148 206.44 155.354 212.362 155.354 218.283C155.354 224.797 157.148 228.942 159.542 230.718C161.337 232.495 164.328 233.679 170.91 233.679C177.491 233.679 181.679 231.311 185.868 227.165C188.859 224.205 191.252 223.02 199.629 217.099C206.21 212.954 216.382 207.624 218.176 205.848C219.373 204.664 221.168 204.071 221.168 200.518C221.168 197.558 218.775 196.373 216.98 195.781V195.781Z"/><path fill="#FFC107" d="M96.7189 197.558C90.7357 188.083 90.1374 186.307 85.9492 180.385C82.3593 174.464 74.5813 163.213 69.7948 163.213C66.2049 163.213 64.4099 164.989 62.0167 167.358C59.6234 169.726 57.2302 175.056 53.042 178.017C49.4521 180.977 39.2808 180.385 36.8875 183.938C34.4942 187.491 39.2808 192.821 39.2808 201.703C39.2808 205.256 36.2892 207.624 35.6909 209.993C35.0926 212.954 34.4942 214.73 35.6909 217.099C38.0841 220.652 41.0757 221.836 61.4184 225.981C72.188 228.35 82.3593 234.271 88.9408 234.864C95.5222 235.456 106.89 234.864 106.89 218.875C107.489 209.401 102.104 207.032 96.7189 197.558Z"/><path fill="#FFC107" d="M108.087 90.3777C104.497 88.0091 101.505 85.6404 101.505 82.0875C101.505 78.5346 103.899 77.3503 107.489 74.3895C108.087 73.7973 114.668 67.8758 121.25 67.8758C127.831 67.8758 135.609 72.0209 138.601 73.2052C143.986 74.3895 149.37 75.5738 148.772 79.7189C148.174 85.6404 147.576 86.8248 141.592 89.7855C137.404 90.9698 129.626 97.4835 124.241 97.4835C121.848 97.4835 118.258 97.4835 115.865 96.8914C114.07 96.2992 111.078 93.3385 108.087 90.3777V90.3777Z"/><path fill="#634703" d="M106.89 85.6405C108.087 86.8248 109.882 88.0091 111.677 88.6012C112.873 89.1934 114.668 89.7856 114.668 89.7856C117.062 89.7856 118.857 89.7856 120.053 89.7856C123.045 89.7856 127.233 88.6013 131.421 86.2326C135.609 84.4562 136.208 83.2718 139.199 82.0875C142.191 80.3111 145.182 78.5346 143.986 77.9425C142.789 77.3503 141.592 77.9425 137.404 80.3111C133.814 82.6797 130.823 83.864 127.233 85.6405C125.438 86.2326 123.045 87.4169 121.25 87.4169C119.455 87.4169 117.66 87.4169 115.865 87.4169C114.07 87.4169 112.873 86.8248 111.078 86.2326C109.882 85.6405 109.283 85.0483 108.685 85.0483C107.489 84.4562 105.095 82.0875 103.899 81.4954C103.899 81.4954 102.702 81.4954 103.3 82.0875C105.095 83.864 105.694 84.4562 106.89 85.6405Z"/><path fill="#634703" d="M124.84 72.613C125.438 73.7973 126.635 73.7973 127.233 74.3895C127.831 74.9816 128.429 74.9816 128.429 74.9816C129.028 74.3895 128.429 73.2052 127.831 73.2052C127.831 72.0209 124.84 72.0209 124.84 72.613V72.613Z"/><path fill="#634703" d="M115.267 73.7973C115.267 74.3895 116.463 74.9816 116.463 74.3895C117.062 73.7973 117.66 73.2052 118.258 73.2052C119.455 72.613 118.856 72.0209 117.062 72.0209C115.865 72.613 115.865 73.2052 115.267 73.7973V73.7973Z"/><path fill="#455A64" d="M173.303 178.609C173.303 179.201 173.303 179.793 173.303 180.385C174.5 182.754 177.491 183.346 179.884 183.346C183.474 183.346 187.064 180.977 188.859 178.609C188.859 178.017 189.457 177.424 190.056 176.832C191.252 175.056 191.851 173.872 192.449 173.279C192.449 173.279 191.851 172.687 191.851 172.095C191.252 170.911 189.457 169.726 187.064 169.134C185.269 168.542 182.278 167.95 181.081 167.95C175.696 167.358 172.705 169.134 170.91 170.911C170.91 170.911 171.508 170.911 171.508 171.503C172.705 172.687 173.303 173.872 173.303 175.648C173.901 176.832 173.303 177.424 173.303 178.609V178.609Z"/></svg>
        </g>
         
        <g transform="translate(3600, 0)">
          <svg xmlns="http://www.w3.org/2000/svg" width="256" height="256" fill="none" viewBox="0 0 256 256"><rect width="256" height="256" fill="#023430" rx="60"/><path fill="#10AA50" d="M171.173 107.591C160.636 61.1097 138.676 48.7357 133.074 39.9886C130.764 36.1353 128.717 32.1299 126.949 28C126.653 32.1292 126.109 34.7307 122.599 37.862C115.552 44.1454 85.6217 68.5354 83.1028 121.348C80.756 170.59 119.303 200.953 124.395 204.092C128.311 206.019 133.08 204.133 135.407 202.364C153.988 189.612 179.376 155.614 171.193 107.591"/><path fill="#B8C4C2" d="M128.545 177.871C127.575 190.059 126.88 197.141 124.416 204.106C124.416 204.106 126.033 215.709 127.169 228H131.188C132.147 219.345 133.61 210.753 135.572 202.268C130.369 199.708 128.745 188.566 128.545 177.871Z"/><path fill="#12924F" d="M135.565 202.275C130.307 199.846 128.786 188.469 128.552 177.871C129.852 160.388 130.231 142.849 129.688 125.326C129.412 116.132 129.818 40.1676 127.423 29.0461C129.062 32.8129 130.949 36.4662 133.074 39.9818C138.676 48.7358 160.643 61.1097 171.173 107.591C179.376 155.532 154.126 189.44 135.565 202.275Z"/></svg>
        </g>
         
        <g transform="translate(3900, 0)">
          <svg xmlns="http://www.w3.org/2000/svg" width="256" height="256" fill="none" viewBox="0 0 256 256"><rect width="256" height="256" fill="#242938" rx="60"/><g clip-path="url(#clip0_7_218)"><path fill="#A41E11" d="M220.161 174.468C209.488 180.035 154.204 202.765 142.434 208.899C130.663 215.034 124.126 214.976 114.826 210.532C105.526 206.089 46.6945 182.326 36.0904 177.257C30.7884 174.722 28.0101 172.591 28.0101 170.576V150.36C28.0101 150.36 104.609 133.685 116.978 129.247C129.348 124.809 133.627 124.65 144.157 128.505C154.687 132.359 217.606 143.711 228.003 147.523V167.459C228.003 169.458 225.607 171.7 220.172 174.479L220.161 174.468Z"/><path fill="#D82C20" d="M220.162 154.246C209.488 159.813 154.204 182.543 142.434 188.677C130.663 194.812 124.126 194.753 114.826 190.31C105.526 185.867 46.6946 162.103 36.0905 157.035C25.4864 151.966 25.2743 148.483 35.6822 144.405L116.973 112.932C129.338 108.5 133.622 108.335 144.151 112.19C154.681 116.045 209.632 137.916 220.024 141.786C230.416 145.657 230.824 148.732 220.151 154.299L220.162 154.246Z"/><path fill="#A41E11" d="M220.161 141.5C209.488 147.067 154.204 169.797 142.434 175.931C130.663 182.066 124.126 182.007 114.826 177.564C105.526 173.121 46.6945 149.357 36.0904 144.289C30.7884 141.754 28.0101 139.623 28.0101 137.608V117.391C28.0101 117.391 104.609 100.716 116.978 96.2787C129.348 91.8409 133.627 91.6818 144.157 95.5364C154.687 99.391 217.606 110.743 228.003 114.555V134.491C228.003 136.489 225.607 138.732 220.172 141.51L220.161 141.5Z"/><path fill="#D82C20" d="M220.162 121.283C209.488 126.85 154.204 149.58 142.434 155.715C130.663 161.849 124.126 161.791 114.826 157.348C105.526 152.904 46.6946 129.141 36.0905 124.072C25.4864 119.003 25.2743 115.52 35.6822 111.442L116.973 79.9748C129.338 75.537 133.622 75.378 144.151 79.2326C154.681 83.0871 209.632 104.963 220.034 108.765C230.437 112.567 230.835 115.711 220.162 121.278V121.283Z"/><path fill="#A41E11" d="M220.161 107.312C209.488 112.879 154.204 135.609 142.434 141.749C130.663 147.889 124.126 147.825 114.826 143.382C105.526 138.939 46.6945 115.175 36.0904 110.106C30.7884 107.572 28.0101 105.441 28.0101 103.426V83.1985C28.0101 83.1985 104.609 66.5236 116.978 62.0858C129.348 57.648 133.627 57.4889 144.157 61.3435C154.687 65.1981 217.606 76.5498 228.003 80.3619V100.298C228.003 102.297 225.607 104.539 220.172 107.318L220.161 107.312Z"/><path fill="#D82C20" d="M220.162 87.0902C209.488 92.6573 154.204 115.387 142.434 121.522C130.663 127.656 124.126 127.598 114.826 123.155C105.526 118.712 46.6946 94.9478 36.0905 89.8791C25.4864 84.8103 25.2743 81.3269 35.6822 77.2496L116.973 45.782C129.338 41.3442 133.622 41.1851 144.151 45.0397C154.681 48.8943 209.632 70.7705 220.034 74.5721C230.437 78.3736 230.835 81.5177 220.162 87.0849V87.0902Z"/><path fill="#fff" d="M132.996 78.7554L126.729 68.3369L106.719 66.5342L121.65 61.1473L117.169 52.8761L131.146 58.3372L144.326 54.0213L140.763 62.5682L154.199 67.6052L136.872 69.4079L132.996 78.7554ZM99.6143 99.497L145.954 92.3816L131.957 112.911L99.6143 99.497Z"/><path fill="#fff" d="M87.1226 92.0158C100.803 92.0158 111.894 87.7168 111.894 82.4138C111.894 77.1107 100.803 72.8118 87.1226 72.8118C73.4419 72.8118 62.3515 77.1107 62.3515 82.4138C62.3515 87.7168 73.4419 92.0158 87.1226 92.0158Z"/><path fill="#7A0C00" d="M202.113 81.0141L174.702 91.8408L174.681 70.1714L202.113 81.0141Z"/><path fill="#AD2115" d="M174.707 91.8408L171.738 93.0072L144.348 82.1805L174.691 70.1766L174.707 91.8408Z"/></g><defs><clipPath id="clip0_7_218"><rect width="200" height="200" fill="#fff" transform="translate(28 28)"/></clipPath></defs></svg>
        </g>
         
        <g transform="translate(4200, 0)">
          <svg xmlns="http://www.w3.org/2000/svg" width="256" height="256" fill="none" viewBox="0 0 256 256"><rect width="256" height="256" fill="#242938" rx="60"/><g clip-path="url(#clip0_7_147)"><path fill="#fff" fill-rule="evenodd" d="M203.801 178.21C194.011 177.938 186.416 178.941 180.051 181.619C178.218 182.355 175.277 182.355 175.035 184.662C176.015 185.63 176.133 187.214 176.992 188.556C178.459 190.991 181.033 194.271 183.357 195.973L191.191 201.571C195.965 204.488 201.351 206.193 206.002 209.113C208.696 210.817 211.388 213.007 214.082 214.834C215.454 215.807 216.285 217.392 218 217.997V217.629C217.144 216.538 216.897 214.957 216.044 213.735L212.367 210.209C208.82 205.465 204.41 201.325 199.636 197.922C195.718 195.245 187.152 191.596 185.56 187.097L185.319 186.824C188.008 186.552 191.191 185.605 193.764 184.875C197.929 183.784 201.721 184.024 206.002 182.93L211.882 181.226V180.135C209.678 177.946 208.087 175.025 205.763 172.959C199.521 167.606 192.661 162.373 185.56 157.994C181.766 155.562 176.868 153.977 172.829 151.913C171.356 151.182 168.911 150.817 168.055 149.601C165.846 146.929 164.625 143.397 163.034 140.232L152.997 119.064C150.794 114.319 149.444 109.574 146.755 105.195C134.144 84.5124 120.431 71.9828 99.375 59.6932C94.8477 57.1382 89.4616 56.0393 83.7353 54.7032L74.5546 54.2124C72.5928 53.3616 70.6364 51.0493 68.9216 49.9531C61.9441 45.5739 43.9475 36.0847 38.8029 48.5897C35.4966 56.4974 43.7006 64.2824 46.4855 68.299C48.5708 71.0966 51.2597 74.2597 52.7332 77.4228C53.5563 79.4897 53.8307 81.682 54.6895 83.8717C56.6458 89.2243 58.4842 95.1878 61.0551 100.178C62.427 102.733 63.8675 105.413 65.5824 107.723C66.5619 109.086 68.2768 109.67 68.6417 111.859C66.9268 114.294 66.8089 117.94 65.8293 120.986C61.42 134.734 63.1349 151.766 69.377 161.888C71.3389 164.928 75.9622 171.622 82.2345 169.065C87.744 166.875 86.5148 159.941 88.1062 153.857C88.4766 152.399 88.2297 151.425 88.9623 150.449V150.722L93.9834 160.819C97.7781 166.78 104.391 172.986 109.897 177.125C112.833 179.315 115.16 183.089 118.831 184.425V184.057H118.59C117.854 182.966 116.751 182.475 115.772 181.624C113.569 179.435 111.121 176.757 109.406 174.325C104.267 167.513 99.7399 159.968 95.6983 152.183C93.7365 148.412 92.0216 144.275 90.4357 140.504C89.6949 139.043 89.6949 136.85 88.4739 136.125C86.6355 138.797 83.9466 141.115 82.5939 144.398C80.2672 149.628 80.0257 156.077 79.1697 162.769C78.6758 162.891 78.8953 162.769 78.6758 163.041C74.7631 162.071 73.4132 158.051 71.9453 154.648C68.274 146.01 67.6594 132.141 70.8422 122.164C71.6983 119.609 75.375 111.579 73.9071 109.146C73.1662 106.834 70.7242 105.498 69.3743 103.671C67.7829 101.359 66.0735 98.4409 64.9705 95.8859C62.0346 89.0689 60.5667 81.5293 57.3812 74.7151C55.9077 71.552 53.3396 68.2662 51.257 65.3486C48.9303 62.0628 46.3648 59.7505 44.5265 55.8593C43.9146 54.4959 43.0585 52.3309 44.0381 50.8693C44.2795 49.8959 44.7734 49.5059 45.7475 49.2878C47.3389 47.9244 51.8716 49.6532 53.463 50.3785C57.9903 52.2054 61.7849 53.907 65.5796 56.4592C67.2945 57.6754 69.1329 59.9877 71.3361 60.5985H73.9098C77.8279 61.4493 82.2317 60.8712 85.9002 61.9619C92.3893 64.0343 98.2637 67.0719 103.532 70.3604C119.567 80.4577 132.792 94.8143 141.725 111.971C143.193 114.769 143.805 117.324 145.155 120.244C147.729 126.208 150.912 132.289 153.477 138.132C156.051 143.85 158.498 149.694 162.17 154.438C164.008 156.993 171.35 158.329 174.654 159.668C177.104 160.759 180.896 161.741 183.105 163.077C187.264 165.632 191.427 168.552 195.342 171.35C197.298 172.806 203.423 175.849 203.787 178.276L203.801 178.21ZM78.9584 72.4873C77.267 72.4724 75.5809 72.6769 73.9427 73.0954V73.3681H74.1842C75.1637 75.315 76.8786 76.6538 78.1023 78.3581L80.9202 84.1989L81.1616 83.9262C82.8765 82.71 83.7353 80.7631 83.7353 77.8454C83 76.9947 82.8793 76.1412 82.2674 75.2904C81.5321 74.0743 79.9407 73.4635 78.9584 72.4928V72.4873Z" clip-rule="evenodd"/></g><defs><clipPath id="clip0_7_147"><rect width="180" height="180" fill="#fff" transform="translate(38 38)"/></clipPath></defs></svg>
        </g>
         
        <g transform="translate(0, 300)">
          <svg width="256" height="256" viewBox="0 0 256 256" fill="none" xmlns="http://www.w3.org/2000/svg">
<rect width="256" height="256" rx="60" fill="#FF6C37"/>
<path d="M169.061 88.6123L118.521 139.153L104.268 124.901C153.971 75.1986 158.882 79.5101 169.061 88.6123Z" fill="#EEEEEE"/>
<path d="M118.521 140.35C118.161 140.35 117.922 140.231 117.682 139.991L103.31 125.739C102.831 125.26 102.831 124.542 103.31 124.063C153.851 73.5211 159.12 78.3118 169.78 87.8932C170.02 88.1328 170.139 88.3724 170.139 88.7317C170.139 89.0911 170.02 89.3306 169.78 89.5694L119.239 139.991C119.12 140.231 118.76 140.35 118.521 140.35ZM105.945 124.901L118.521 137.476L167.265 88.7317C158.403 80.8266 152.414 78.4316 105.945 124.901Z" fill="#FF6C37"/>
<path d="M133.012 153.645L119.239 139.872L169.78 89.3315C183.314 102.984 163.073 125.141 133.012 153.645Z" fill="#EEEEEE"/>
<path d="M133.012 154.843C132.652 154.843 132.414 154.723 132.174 154.483L118.401 140.71C118.161 140.471 118.161 140.231 118.161 139.872C118.161 139.512 118.281 139.273 118.521 139.033L169.061 88.4927C169.54 88.0135 170.259 88.0135 170.738 88.4927C173.852 91.3668 175.529 95.4387 175.409 99.6305C175.17 112.924 160.079 129.811 133.97 154.483C133.611 154.723 133.251 154.843 133.012 154.843ZM120.916 139.872C128.58 147.656 131.815 150.771 133.012 151.968C153.133 132.806 172.654 113.164 172.774 99.6305C172.894 96.5168 171.697 93.4031 169.66 91.0074L120.916 139.872Z" fill="#FF6C37"/>
<path d="M104.508 125.26L114.688 135.44C114.927 135.68 114.927 135.919 114.688 136.159C114.568 136.279 114.568 136.279 114.449 136.279L93.3693 140.83C92.292 140.95 91.3337 140.231 91.0942 139.153C90.9744 138.554 91.214 137.956 91.5733 137.596L103.789 125.38C104.029 125.14 104.388 125.02 104.508 125.26Z" fill="#EEEEEE"/>
<path d="M93.01 142.028C91.214 142.028 89.8963 140.59 89.8963 138.793C89.8963 137.956 90.2557 137.117 90.8546 136.518L103.07 124.302C103.789 123.703 104.748 123.703 105.466 124.302L115.646 134.482C116.364 135.081 116.364 136.159 115.646 136.877C115.406 137.117 115.167 137.237 114.807 137.357L93.7287 141.908C93.4891 141.908 93.2495 142.028 93.01 142.028ZM104.149 126.577L92.4118 138.314C92.1723 138.554 92.0525 138.913 92.292 139.272C92.4118 139.632 92.7704 139.752 93.1298 139.632L112.891 135.32L104.149 126.577Z" fill="#FF6C37"/>
<path d="M195.769 60.5877C188.104 53.1625 175.768 53.4021 168.342 61.1867C160.917 68.9712 161.157 81.1871 168.941 88.6131C175.289 94.7207 184.871 95.7988 192.416 91.2476L178.762 77.5943L195.769 60.5877Z" fill="#EEEEEE"/>
<path d="M182.355 95.1996C170.978 95.1996 161.756 85.9776 161.756 74.6002C161.756 63.222 170.978 54 182.355 54C187.625 54 192.775 56.0364 196.607 59.749C196.847 59.9886 196.967 60.2281 196.967 60.5875C196.967 60.9469 196.847 61.1864 196.607 61.426L180.439 77.5941L193.134 90.2891C193.614 90.7683 193.614 91.487 193.134 91.9661C193.015 92.0859 193.015 92.0859 192.895 92.2057C189.781 94.1215 186.068 95.1996 182.355 95.1996ZM182.355 56.5155C172.295 56.5155 164.151 64.6595 164.271 74.72C164.271 84.7805 172.414 92.9244 182.475 92.8047C185.23 92.8047 187.984 92.2057 190.499 90.888L177.924 78.4326C177.684 78.193 177.565 77.9534 177.565 77.5941C177.565 77.2347 177.684 76.9951 177.924 76.7556L193.973 60.7073C190.739 57.953 186.667 56.5155 182.355 56.5155Z" fill="#FF6C37"/>
<path d="M196.128 60.9471L195.889 60.7075L178.762 77.5943L192.296 91.1279C193.614 90.2894 194.93 89.3319 196.009 88.2538C203.673 80.708 203.673 68.4921 196.128 60.9471Z" fill="#EEEEEE"/>
<path d="M192.416 92.4448C192.056 92.4448 191.817 92.325 191.577 92.0855L177.924 78.4321C177.684 78.1925 177.565 77.953 177.565 77.5936C177.565 77.2342 177.684 76.9947 177.924 76.7551L194.93 59.7485C195.41 59.2694 196.128 59.2694 196.607 59.7485L196.967 59.9881C204.991 68.0122 204.991 80.9469 197.087 89.0916C195.889 90.2887 194.571 91.3667 193.134 92.2053C192.775 92.325 192.536 92.4448 192.416 92.4448ZM180.439 77.5936L192.536 89.6897C193.494 89.0916 194.452 88.2531 195.17 87.5344C201.997 80.7073 202.356 69.5695 195.769 62.3838L180.439 77.5936Z" fill="#FF6C37"/>
<path d="M171.098 90.7674C168.223 87.8933 163.552 87.8933 160.678 90.7674L115.526 135.919L123.072 143.464L170.858 101.547C173.972 98.9113 174.211 94.2404 171.577 91.1267C171.337 91.007 171.217 90.8872 171.098 90.7674Z" fill="#EEEEEE"/>
<path d="M122.952 144.662C122.593 144.662 122.353 144.542 122.113 144.303L114.568 136.758C114.089 136.279 114.089 135.56 114.568 135.081L159.719 89.929C163.073 86.5758 168.462 86.5758 171.816 89.929C175.17 93.283 175.17 98.6719 171.816 102.026C171.697 102.146 171.577 102.265 171.457 102.385L123.67 144.303C123.551 144.542 123.311 144.662 122.952 144.662ZM117.203 135.919L123.072 141.788L170.02 100.588C172.654 98.4323 172.894 94.4801 170.738 91.8456C168.582 89.2111 164.63 88.9715 161.995 91.1269C161.876 91.2467 161.756 91.3664 161.516 91.4862L117.203 135.919Z" fill="#FF6C37"/>
<path d="M80.9139 187.3C80.4347 187.539 80.1951 188.018 80.3149 188.497L82.3513 197.121C82.8305 198.318 82.1117 199.756 80.7941 200.115C79.8358 200.474 78.7585 200.115 78.1596 199.397L64.9854 186.342L107.981 143.346L122.832 143.585L132.892 153.646C130.497 155.682 116.005 169.694 80.9139 187.3Z" fill="#EEEEEE"/>
<path d="M79.9556 201.311C78.9981 201.311 78.0398 200.952 77.4408 200.234L64.3864 187.179C64.1469 186.94 64.0271 186.7 64.0271 186.341C64.0271 185.982 64.1469 185.742 64.3864 185.502L107.382 142.507C107.622 142.267 107.981 142.147 108.221 142.147L123.072 142.387C123.431 142.387 123.67 142.507 123.909 142.746L133.97 152.806C134.21 153.046 134.329 153.405 134.329 153.764C134.329 154.124 134.21 154.363 133.85 154.603L133.012 155.322C120.317 166.459 103.07 177.598 81.6326 188.257L83.669 196.76C84.0275 198.317 83.3096 199.994 81.8722 200.832C81.1534 201.191 80.5545 201.311 79.9556 201.311ZM66.7814 186.341L79.1178 198.557C79.4764 199.156 80.1951 199.395 80.7941 199.036C81.393 198.677 81.6326 197.958 81.2732 197.359L79.2376 188.736C78.9981 187.658 79.4764 186.7 80.4347 186.221C101.633 175.562 118.76 164.544 131.335 153.645L122.473 144.782L108.7 144.542L66.7814 186.341Z" fill="#FF6C37"/>
<path d="M54.8051 196.641L65.1052 186.341L80.4347 201.671L56.0029 199.995C54.9249 199.875 54.2061 198.917 54.3259 197.838C54.3259 197.359 54.4457 196.88 54.8051 196.641Z" fill="#EEEEEE"/>
<path d="M80.4347 202.749L55.8831 201.072C54.0863 200.952 52.8884 199.396 53.0082 197.599C53.128 196.88 53.3676 196.162 53.9665 195.683L64.2666 185.383C64.7458 184.904 65.4645 184.904 65.9429 185.383L81.2732 200.713C81.6326 201.072 81.7524 201.551 81.5128 202.031C81.2732 202.51 80.9139 202.749 80.4347 202.749ZM65.1051 188.018L55.6435 197.479C55.2842 197.719 55.2842 198.318 55.6435 198.557C55.7633 198.677 55.8831 198.797 56.1227 198.797L77.321 200.234L65.1051 188.018Z" fill="#FF6C37"/>
<path d="M103.789 148.855C103.07 148.855 102.591 148.256 102.591 147.657C102.591 147.298 102.711 147.059 102.951 146.819L114.568 135.202C115.047 134.722 115.766 134.722 116.245 135.202L123.79 142.747C124.149 143.106 124.269 143.465 124.149 143.945C124.029 144.304 123.67 144.663 123.192 144.783L104.029 148.855C103.909 148.855 103.789 148.855 103.789 148.855ZM115.406 137.717L107.502 145.622L120.436 142.866L115.406 137.717Z" fill="#FF6C37"/>
<path d="M122.832 143.584L109.658 146.459C108.7 146.699 107.741 146.1 107.502 145.142C107.382 144.543 107.502 143.944 107.981 143.465L115.286 136.159L122.832 143.584Z" fill="#EEEEEE"/>
<path d="M109.418 147.657C107.741 147.657 106.424 146.34 106.424 144.663C106.424 143.825 106.783 143.106 107.262 142.508L114.568 135.202C115.047 134.722 115.766 134.722 116.245 135.202L123.79 142.747C124.149 143.106 124.269 143.465 124.149 143.945C124.029 144.304 123.67 144.663 123.192 144.783L110.017 147.657C109.778 147.657 109.538 147.657 109.418 147.657ZM115.406 137.717L108.939 144.184C108.7 144.424 108.7 144.663 108.819 144.903C108.939 145.142 109.179 145.262 109.538 145.262L120.556 142.866L115.406 137.717Z" fill="#FF6C37"/>
<path d="M196.248 72.4434C196.009 71.7254 195.17 71.3661 194.451 71.6057C193.733 71.8444 193.374 72.6829 193.614 73.4017C193.614 73.5215 193.733 73.6412 193.733 73.761C194.451 75.1985 194.213 76.9945 193.254 78.3121C192.775 78.9111 192.895 79.7496 193.374 80.2287C193.973 80.7071 194.811 80.5881 195.29 79.9892C197.087 77.7132 197.446 74.8391 196.248 72.4434Z" fill="#FF6C37"/>
</svg>

        </g>
         
        <g transform="translate(300, 300)">
          <svg xmlns="http://www.w3.org/2000/svg" width="256" height="256" fill="none" viewBox="0 0 256 256"><rect width="256" height="256" fill="#242938" rx="60"/><path fill="url(#paint0_linear_159_762)" d="M78.5714 184L30.2856 145.714L54.2856 101.143L123.143 128L78.5714 184Z"/><path fill="url(#paint1_linear_159_762)" d="M228 81.4285L224.286 197.143L147.429 228L101.143 198.286L168.857 128L139.143 63.1428L165.714 31.1428L228 81.4285Z"/><path fill="url(#paint2_linear_159_762)" d="M228 81.4285L167.143 153.429L139.143 63.1428L165.714 31.1428L228 81.4285Z"/><path fill="url(#paint3_linear_159_762)" d="M124.286 194L44 223.143L56.8571 178L73.7143 122.571L28 107.143L56.8571 28L119.714 35.7143L181.429 106.286L124.286 194Z"/><path fill="#000" d="M190.571 66.5715H67.1428V190H190.571V66.5715Z"/><path fill="#fff" d="M124.857 166.857H78.5713V174.571H124.857V166.857Z"/><path fill="#fff" d="M112 92.0001V82.5715H86.2856V92.0001H93.7142V124.286H86.2856V133.714H112V124.286H104.857V92.0001H112Z"/><path fill="#fff" d="M136.571 134.572C132.571 134.572 129.143 133.714 126.571 132.286C124 130.857 121.714 128.857 120 126.857L127.143 118.857C128.571 120.572 130 121.714 131.429 122.572C132.857 123.429 134.571 124 136.286 124C138.286 124 140 123.429 141.429 122C142.571 120.572 143.143 118.572 143.143 115.429V82.5715H154.571V116C154.571 119.143 154.286 121.714 153.429 124C152.571 126.286 151.429 128 149.714 129.714C148.286 131.143 146.286 132.572 144 133.143C141.714 134 139.429 134.572 136.571 134.572Z"/><defs><linearGradient id="paint0_linear_159_762" x1="30.256" x2="123.192" y1="142.541" y2="142.541" gradientUnits="userSpaceOnUse"><stop offset=".258" stop-color="#F97A12"/><stop offset=".459" stop-color="#B07B58"/><stop offset=".724" stop-color="#577BAE"/><stop offset=".91" stop-color="#1E7CE5"/><stop offset="1" stop-color="#087CFA"/></linearGradient><linearGradient id="paint1_linear_159_762" x1="101.621" x2="254.926" y1="99.086" y2="183.914" gradientUnits="userSpaceOnUse"><stop stop-color="#F97A12"/><stop offset=".072" stop-color="#CB7A3E"/><stop offset=".154" stop-color="#9E7B6A"/><stop offset=".242" stop-color="#757B91"/><stop offset=".334" stop-color="#537BB1"/><stop offset=".432" stop-color="#387CCC"/><stop offset=".538" stop-color="#237CE0"/><stop offset=".655" stop-color="#147CEF"/><stop offset=".792" stop-color="#0B7CF7"/><stop offset="1" stop-color="#087CFA"/></linearGradient><linearGradient id="paint2_linear_159_762" x1="208.651" x2="165.972" y1="150.615" y2="23.088" gradientUnits="userSpaceOnUse"><stop stop-color="#FE315D"/><stop offset=".078" stop-color="#CB417E"/><stop offset=".16" stop-color="#9E4E9B"/><stop offset=".247" stop-color="#755BB4"/><stop offset=".339" stop-color="#5365CA"/><stop offset=".436" stop-color="#386DDB"/><stop offset=".541" stop-color="#2374E9"/><stop offset=".658" stop-color="#1478F3"/><stop offset=".794" stop-color="#0B7BF8"/><stop offset="1" stop-color="#087CFA"/></linearGradient><linearGradient id="paint3_linear_159_762" x1="58.63" x2="186.639" y1="75.066" y2="286.8" gradientUnits="userSpaceOnUse"><stop stop-color="#FE315D"/><stop offset=".04" stop-color="#F63462"/><stop offset=".104" stop-color="#DF3A71"/><stop offset=".167" stop-color="#C24383"/><stop offset=".291" stop-color="#AD4A91"/><stop offset=".55" stop-color="#755BB4"/><stop offset=".917" stop-color="#1D76ED"/><stop offset="1" stop-color="#087CFA"/></linearGradient></defs></svg>
        </g>
        
  </svg>
  